<?xml version="1.0" encoding="UTF-8"?>
<svg width="107px" height="107px" viewBox="0 0 107 107" version="1.1" xmlns="http://www.w3.org/2000/svg" xmlns:xlink="http://www.w3.org/1999/xlink">
    <!-- Generator: Sketch 51.3 (57544) - http://www.bohemiancoding.com/sketch -->
    <title>Oval Copy</title>
    <desc>Created with Sketch.</desc>
    <defs></defs>
    <g id="Page-1" stroke="none" stroke-width="1" fill="none" fill-rule="evenodd">
        <g id="Desktop-HD" transform="translate(-907.000000, -2930.000000)">
            <rect fill="none" x="0" y="0" width="1440" height="3608"></rect>
            <g id="Hobby's" transform="translate(858.000000, 2631.000000)">
                <rect id="Rectangle-5" fill="none" x="0" y="101" width="582" height="665"></rect>
                <g id="Sport" transform="translate(49.000000, 299.000000)">
                    <circle id="Oval-Copy" fill="#DFE0DF" fill-rule="nonzero" cx="53.5" cy="53.5" r="53.5"></circle>
                    <path d="M52.9525,22 C47.5660003,22 34,36.2642501 34,53.9200001 C34,71.5757508 48.0647503,85.8400001 52.9525,85.8400001 C57.8402496,85.8400001 71.9050001,71.5757508 71.9050001,53.9200001 C71.9050001,36.2642492 58.3389996,22 52.9525,22 Z M52.9525,25.99 C54.1495007,25.99 57.94,29.0822499 61.2317493,33.6707498 L61.4312501,33.97 L44.47375,33.97 L44.6732498,33.6707498 C47.965,29.0822499 51.7554992,25.99 52.9525,25.99 Z M42.0797504,37.96 L63.8252497,37.96 C66.4187501,42.9475 67.9150001,48.4337501 67.9150001,53.9200001 C67.9150001,59.4062501 66.3190016,64.8925001 63.6257508,69.8800001 L42.2792512,69.8800001 C39.5860013,64.8925001 37.990001,59.4062501 37.990001,53.9200001 C37.990001,48.4337501 39.486251,42.9475 42.0797504,37.96 Z M55.44625,80.2540016 C54.6482507,80.8525001 53.95,81.3512501 53.3514996,81.6505031 C53.1519988,81.7502516 53.0522503,81.7502516 52.9525,81.8500039 C52.8527496,81.8500039 52.6532507,81.7502554 52.5535003,81.6505031 C51.955,81.3512539 51.2567511,80.8525039 50.45875,80.2540016 C48.6632498,78.7577516 46.6682498,76.6630031 44.8727496,74.1692531 L44.6732498,73.8700039 L61.2317493,73.8700039 L61.0322485,74.1692531 C59.2367493,76.6630031 57.2417492,78.7577516 55.446248,80.2540016 L55.44625,80.2540016 Z M48.9625,51.9250001 C47.8652496,51.9250001 46.9675,52.8227497 46.9675,53.9200001 C46.9675,55.0172485 47.8652496,55.9150001 48.9625,55.9150001 L50.9575,55.9150001 L50.9575,58.9075001 L48.9625,58.9075001 C47.8652496,58.9075001 46.9675,59.8052516 46.9675,60.9025001 C46.9675,61.9997485 47.8652496,62.8975001 48.9625,62.8975001 L50.9575,62.8975001 L50.9575,63.8950001 C50.9575,64.9922485 51.8552496,65.8900001 52.9525,65.8900001 C54.0497503,65.8900001 54.9475,64.9922485 54.9475,63.8950001 L54.9475,62.8975001 L56.9425,62.8975001 C58.0397503,62.8975001 58.9375,61.9997485 58.9375,60.9025001 C58.9375,59.8052516 58.0397503,58.9075001 56.9425,58.9075001 L54.9475,58.9075001 L54.9475,55.9150001 L56.9425,55.9150001 C58.0397503,55.9150001 58.9375,55.0172485 58.9375,53.9200001 C58.9375,52.8227516 58.0397503,51.9250001 56.9425,51.9250001 L54.9475,51.9250001 L54.9475,48.9325001 L56.9425,48.9325001 C58.0397503,48.9325001 58.9375,48.0347504 58.9375,46.9375 C58.9375,45.8402496 58.0397503,44.9425 56.9425,44.9425 L54.9475,44.9425 L54.9475,43.945 C54.9475,42.8477496 54.0497503,41.95 52.9525,41.95 C51.8552496,41.95 50.9575,42.8477496 50.9575,43.945 L50.9575,44.9425 L48.9625,44.9425 C47.8652496,44.9425 46.9675,45.8402496 46.9675,46.9375 C46.9675,48.0347504 47.8652496,48.9325001 48.9625,48.9325001 L50.9575,48.9325001 L50.9575,51.9250001 L48.9625,51.9250001 Z" id="Fill-2" fill="#333333"></path>
                </g>
            </g>
        </g>
    </g>
</svg>