<?xml version="1.0" encoding="UTF-8"?>
<svg width="38px" height="51px" viewBox="0 0 38 51" version="1.1" xmlns="http://www.w3.org/2000/svg" xmlns:xlink="http://www.w3.org/1999/xlink">
    <!-- Generator: Sketch 51.3 (57544) - http://www.bohemiancoding.com/sketch -->
    <title>Fill 2</title>
    <desc>Created with Sketch.</desc>
    <defs></defs>
    <g id="Page-1" stroke="none" stroke-width="1" fill="none" fill-rule="evenodd">
        <g id="Desktop-HD" transform="translate(-83.000000, -502.000000)" fill="#FFFFFF">
            <g id="Header" transform="translate(0.000000, -22.000000)">
                <path d="M102.0401,560 L94.0200498,563.373494 L86,560.421687 L86,563.963856 L94.0200498,567 L101.959899,563.626506 L109.97995,567 L118,563.963856 L118,560.421687 L109.97995,563.373494 L102.040101,560 L102.0401,560 Z M117.833333,552.6 L107.541667,552.6 L107.541667,540.6 C107.541667,539.72 106.829167,539 105.958333,539 L98.0416667,539 C97.170833,539 96.4583333,539.72 96.4583333,540.6 L96.4583333,552.6 L86.1666667,552.6 C84.425,552.6 83,554.039999 83,555.8 L83,571.8 C83,573.560001 84.425,575 86.1666667,575 L117.833333,575 C119.575001,575 121,573.560001 121,571.8 L121,555.8 C121,554.039999 119.575001,552.6 117.833333,552.6 Z M100,542 L105,542 L105,552 L100,552 L100,542 Z M118,561.065326 L118,572 L86,572 L86,556 L118,556 L118,561.065326 Z M102,538 C104.749999,538 107,535.776471 107,533.058824 C107,530.42353 104.749999,524 102,524 C99.2500006,524 97,530.42353 97,533.058824 C97,535.776471 99.2500006,538 102,538 Z M101.05,529.02439 L101.5,528 C101.650001,528.256098 101.8,528.597561 101.95,529.02439 C102.55,530.560976 103,532.439024 103,533.292683 C103,534.231708 102.325,535 101.5,535 C100.675,535 100,534.231708 100,533.292683 C100,532.439024 100.45,530.475609 101.05,529.02439 Z" id="Fill-2"></path>
            </g>
        </g>
    </g>
</svg>