<?xml version="1.0" encoding="UTF-8"?>
<svg width="64px" height="64px" viewBox="0 0 64 64" version="1.1" xmlns="http://www.w3.org/2000/svg" xmlns:xlink="http://www.w3.org/1999/xlink">
    <!-- Generator: Sketch 51.3 (57544) - http://www.bohemiancoding.com/sketch -->
    <title>Fill 2</title>
    <desc>Created with Sketch.</desc>
    <defs></defs>
    <g id="Page-1" stroke="none" stroke-width="1" fill="none" fill-rule="evenodd">
        <g id="Desktop-HD" transform="translate(-1089.000000, -627.000000)" fill="#333333">
            <g id="Contact-section" transform="translate(922.000000, 584.000000)">
                <path d="M167,69.3494678 L167,102.522898 L187.422082,86.6833341 L167,69.3494678 Z M228.565105,64.7669514 L201.269252,43.7471493 C199.974193,42.7509502 197.882175,42.7509502 196.587115,43.7471493 L169.191639,64.7669514 L198.878372,89.3730687 L228.565105,64.7669495 L228.565105,64.7669514 Z M199.675331,95.7487447 C199.27685,96.0476037 198.579511,96.1472259 198.181032,95.7487447 L190.709539,89.4726909 L168.992398,106.208836 C169.590118,106.507695 170.287457,106.706935 170.984797,106.706935 L226.771948,106.706935 C227.469288,106.706935 228.166628,106.507695 228.764346,106.208836 L207.047206,89.4726909 L199.675331,95.7487447 Z M210.334662,86.6833341 L230.756744,102.522902 L230.756744,69.3494716 L210.334662,86.6833341 Z" id="Fill-2"></path>
            </g>
        </g>
    </g>
</svg>