<?xml version="1.0" encoding="UTF-8"?>
<svg width="64px" height="64px" viewBox="0 0 64 64" version="1.1" xmlns="http://www.w3.org/2000/svg" xmlns:xlink="http://www.w3.org/1999/xlink">
    <!-- Generator: Sketch 51.3 (57544) - http://www.bohemiancoding.com/sketch -->
    <title>Fill 2</title>
    <desc>Created with Sketch.</desc>
    <defs></defs>
    <g id="Page-1" stroke="none" stroke-width="1" fill="none" fill-rule="evenodd">
        <g id="Desktop-HD" transform="translate(-1216.000000, -629.000000)" fill="#343434">
            <g id="Contact-section" transform="translate(922.000000, 584.000000)">
                <path d="M326,45 C308.299999,45 294,59.3000001 294,77 C294,94.7000007 308.3,109 326,109 C343.700001,109 358,94.7000007 358,77 C358,59.2999992 343.700001,45 326,45 Z M311,62 C311.6,61.2999992 312.5,61 313.5,61 C314.5,61 315.4,61.2999992 316,62 C316.6,62.7000007 317,63.5 317,64.5 C317,65.5 316.700001,66.2999992 316,67 C315.4,67.7000007 314.5,68 313.4,68 C312.4,68 311.5,67.7000007 310.9,67 C310.299999,66.2999992 310,65.5 310,64.5 C310,63.5 310.299999,62.7000007 311,62 Z M317,92 L310,92 L310,71 L317,71 L317,92 Z M343,92 L335.799999,92 L335.799999,81 C335.799999,79.5999984 335.5,78.4000015 334.899998,77.5999984 C334.299999,76.7999992 333.399998,76.3999977 332.099998,76.3999977 C331.199997,76.3999977 330.399998,76.5999984 329.799999,77.0999984 C329.200001,77.5999984 328.700001,78.1999969 328.399998,78.8999977 C328.199997,79.2999992 328.199997,79.8999977 328.199997,80.5999984 L328.199997,92 L320.999996,92 L320.999996,71.5 L328.199997,71.5 L328.199997,74.3999996 C328.499996,74 328.799995,73.6000003 329.099998,73.2999992 C329.399998,73 329.799999,72.5999984 330.299999,72.1999988 C330.799999,71.7999992 331.5,71.499998 332.200001,71.2999992 C333,71.0999984 333.799999,71 334.700001,71 C337.200001,71 339.200001,71.7999992 340.700001,73.3999996 C342.200001,75 343,77.2999992 343,80.2999992 L343,92 Z" id="Fill-2"></path>
            </g>
        </g>
    </g>
</svg>