<?xml version="1.0" encoding="UTF-8"?>
<svg width="36px" height="53px" viewBox="0 0 36 53" version="1.1" xmlns="http://www.w3.org/2000/svg" xmlns:xlink="http://www.w3.org/1999/xlink">
    <!-- Generator: Sketch 51.3 (57544) - http://www.bohemiancoding.com/sketch -->
    <title>Fill 4</title>
    <desc>Created with Sketch.</desc>
    <defs></defs>
    <g id="Page-1" stroke="none" stroke-width="1" fill="none" fill-rule="evenodd">
        <g id="Desktop-HD" transform="translate(-83.000000, -424.000000)" fill="#FFFFFF">
            <g id="Header" transform="translate(0.000000, -22.000000)">
                <path d="M101,446 C89.872727,446 83,453.445455 83,464 C83,475.290908 100.018181,497.872728 100.018181,497.872728 C100.590909,498.609093 101.409091,498.609093 101.981817,497.872728 C101.981817,497.872728 119,475.290912 119,464 C119,453.445455 111.718181,446 101,446 Z M107.709091,483.472727 C105.909091,486.5 103.945455,489.445453 101.981819,492.30909 C101.654546,492.799997 101.327274,493.209088 101,493.618179 L100.018181,492.30909 C98.0545451,489.52727 96.0909083,486.5 94.2909084,483.472727 C92.818181,481.018181 91.4272721,478.563636 90.2818179,476.354544 C87.7454543,471.118181 86.2727269,466.781816 86.2727269,463.999998 C86.2727269,454.999998 91.9181815,449.272726 101,449.272726 C109.836363,449.272726 115.727273,455.245453 115.727273,463.999998 C115.727273,466.781816 114.254546,471.118179 111.636364,476.354544 C110.490908,478.563636 109.181818,481.018181 107.709091,483.472727 Z M101,453.363636 C95.5999997,453.363636 91.1818182,457.781818 91.1818182,463.181818 C91.1818182,468.581818 95.5999997,473 101,473 C106.4,473 110.818182,468.581818 110.818182,463.181818 C110.818182,457.781818 106.4,453.363636 101,453.363636 Z M101,469.727273 C97.4000002,469.727273 94.4545455,466.781818 94.4545455,463.181818 C94.4545455,459.581818 97.4000002,456.636364 101,456.636364 C104.6,456.636364 107.545455,459.581818 107.545455,463.181818 C107.545455,466.781818 104.6,469.727273 101,469.727273 Z" id="Fill-4"></path>
            </g>
        </g>
    </g>
</svg>