<?xml version="1.0" encoding="UTF-8"?>
<svg width="64px" height="63px" viewBox="0 0 64 63" version="1.1" xmlns="http://www.w3.org/2000/svg" xmlns:xlink="http://www.w3.org/1999/xlink">
    <!-- Generator: Sketch 51.3 (57544) - http://www.bohemiancoding.com/sketch -->
    <title>Fill 4</title>
    <desc>Created with Sketch.</desc>
    <defs></defs>
    <g id="Page-1" stroke="none" stroke-width="1" fill="none" fill-rule="evenodd">
        <g id="Desktop-HD" transform="translate(-1336.000000, -629.000000)" fill="#343434">
            <g id="Contact-section" transform="translate(922.000000, 584.000000)">
                <path d="M473.22062,60.9707192 C470.343905,56.0108686 466.574419,52.1421856 461.713764,49.2654717 C456.853109,46.3887583 451.496473,45 445.743045,45 C439.989617,45 434.632981,46.3887581 429.772325,49.2654717 C424.911672,52.1421851 421.142186,56.0108686 418.265472,60.9707192 C415.388758,65.8313725 414,71.1880127 414,77.0406379 C414,83.9844287 415.98394,90.333039 420.051018,95.8880702 C424.118095,101.443101 429.27634,105.311786 435.724146,107.494121 C436.418526,107.593317 437.013707,107.494121 437.410496,107.196531 C437.807284,106.898941 437.906481,106.402956 437.906481,105.906971 L437.906481,99.95515 L436.914511,100.153545 C436.319329,100.25274 435.525753,100.351939 434.632981,100.25274 C433.740208,100.25274 432.748238,100.153545 431.756268,99.95515 C430.764297,99.7567551 429.871525,99.3599694 428.978751,98.6655896 C428.085978,97.9712097 427.490796,97.1776344 427.193205,96.0864688 L426.796417,95.0944986 C426.498826,94.4993181 426.102038,93.705739 425.506856,93.0113629 C424.911673,92.2177876 424.316492,91.7218025 423.721309,91.4242122 L423.423718,91.2258175 C423.225324,91.1266219 423.02693,90.9282271 422.927733,90.7298324 C422.729339,90.5314376 422.630142,90.3330428 422.530945,90.1346518 C422.431748,89.936257 422.530945,89.7378623 422.729339,89.6386668 C422.927733,89.5394712 423.324522,89.4402719 423.919703,89.4402719 L424.713279,89.5394675 C425.308462,89.638663 425.903643,89.936257 426.796417,90.5314376 C427.589993,91.1266182 428.284372,91.8209979 428.780357,92.7137726 C429.37554,93.8049382 430.169115,94.6977129 431.061888,95.2928934 C431.95466,95.888074 432.847433,96.1856681 433.740208,96.1856681 C434.632981,96.1856681 435.426558,96.0864725 436.120936,95.9872732 C436.815314,95.888074 437.410496,95.5904837 438.005679,95.3920927 C438.204073,93.5073479 438.898451,92.1185921 439.989619,91.1266219 C438.402466,90.9282271 437.013708,90.7298324 435.724146,90.3330466 C434.434586,90.0354563 433.145023,89.4402719 431.855463,88.7458959 C430.565903,87.9523205 429.375538,87.0595459 428.482765,85.9683803 C427.589992,84.8772147 426.895612,83.3892596 426.300431,81.6037103 C425.705248,79.8181648 425.407658,77.7350253 425.407658,75.3542993 C425.407658,71.9816013 426.498826,69.1048882 428.68116,66.7241584 C427.68919,64.2442331 427.788387,61.3675202 428.978751,58.193215 C429.772327,57.8956238 430.96269,58.0940177 432.549843,58.7883975 C434.136996,59.3835799 435.228163,59.9787614 436.021738,60.3755501 C436.716118,60.7723377 437.311299,61.1691254 437.807284,61.4667176 C440.386406,60.7723387 443.064727,60.3755501 445.743045,60.3755501 C448.421363,60.3755501 451.099683,60.7723377 453.678808,61.4667176 L455.265958,60.4747475 C456.357124,59.7803686 457.646688,59.1851861 459.035444,58.6892011 C460.523399,58.0940186 461.614565,57.9948222 462.408144,58.193216 C463.598509,61.3675202 463.796904,64.1450376 462.705734,66.7241584 C464.888069,69.1048863 465.979235,71.9815994 465.979235,75.3542993 C465.979235,77.7350291 465.681645,79.8181648 465.08646,81.6037103 C464.49128,83.3892558 463.7969,84.877211 462.904125,85.9683803 C462.011351,87.0595459 460.920185,87.9523205 459.531425,88.7458959 C458.241865,89.5394712 456.853105,90.0354563 455.66274,90.3330466 C454.37318,90.6306369 452.98442,90.9282271 451.39727,91.1266219 C452.786029,92.4161823 453.579605,94.3009271 453.579605,97.0784427 L453.579605,105.906974 C453.579605,106.40296 453.777999,106.799749 454.07559,107.196535 C454.37318,107.494125 454.968364,107.593324 455.66274,107.494125 C462.011351,105.31179 467.268791,101.542304 471.335867,95.888074 C475.402943,90.3330428 477.386884,84.0836318 477.386884,77.0406417 C477.486079,71.1880183 476.097323,65.8313801 473.220608,60.970725 L473.22062,60.9707192 Z" id="Fill-4"></path>
            </g>
        </g>
    </g>
</svg>