<?xml version="1.0" encoding="UTF-8"?>
<svg width="107px" height="107px" viewBox="0 0 107 107" version="1.1" xmlns="http://www.w3.org/2000/svg" xmlns:xlink="http://www.w3.org/1999/xlink">
    <!-- Generator: Sketch 51.3 (57544) - http://www.bohemiancoding.com/sketch -->
    <title>Oval</title>
    <desc>Created with Sketch.</desc>
    <defs></defs>
    <g id="Page-1" stroke="none" stroke-width="1" fill="none" fill-rule="evenodd">
        <g id="Desktop-HD" transform="translate(-907.000000, -3097.000000)">
            <rect fill="none" x="0" y="0" width="1440" height="3608"></rect>
            <g id="Hobby's" transform="translate(858.000000, 2631.000000)">
                <rect id="Rectangle-5" fill="none" x="0" y="101" width="582" height="665"></rect>
                <g id="Motoren" transform="translate(49.000000, 466.000000)">
                    <circle id="Oval" fill="#DFE0DF" fill-rule="nonzero" cx="53.5" cy="53.5" r="53.5"></circle>
                    <path d="M58.1743269,35.8060816 C59.7635147,34.3162167 60.756758,32.2304054 60.756758,29.9459462 C60.756758,25.5756757 57.1810837,22 52.8108118,22 C48.4405397,22 44.8648655,25.5756757 44.8648655,29.9459462 C44.8648655,32.2304054 45.8581088,34.3162167 47.4472984,35.8060816 C43.57365,37.494595 40.8918924,41.3682444 40.8918924,45.8378391 L40.8918924,63.7162181 C40.8918924,67.5898684 42.878379,70.9668932 45.8581088,72.854057 L45.8581088,66.6959479 C45.8581088,62.8222976 48.9371633,59.743245 52.8108118,59.743245 C56.6844601,59.743245 59.7635147,62.8222976 59.7635147,66.6959479 L59.7635147,72.854057 C62.7432445,70.8675704 64.7297311,67.4905418 64.7297311,63.7162181 L64.7297311,45.8378391 C64.7297311,41.3682444 62.0479734,37.4945959 58.1743269,35.8060816 Z M52.8108136,24.9797303 C55.591894,24.9797303 57.7770281,27.1648653 57.7770281,29.9459467 C57.7770281,32.727028 55.5918921,34.9121631 52.8108118,34.9121631 C50.0297313,34.9121631 47.8445954,32.727028 47.8445954,29.9459467 C47.8445954,27.1648653 50.0297313,24.9797303 52.8108118,24.9797303 L52.8108136,24.9797303 Z M61.7500012,62.3256759 C60.1608135,59.0479739 56.7837849,56.7635152 52.8108118,56.7635152 C48.8378386,56.7635152 45.4608118,59.0479739 43.8716223,62.3256759 L43.8716223,45.8378371 C43.8716223,41.4675671 47.4472984,37.8918909 51.8175685,37.8918909 L53.804055,37.8918909 C58.1743269,37.8918909 61.7500012,41.4675671 61.7500012,45.8378371 L61.7500012,62.3256759 Z M52.8108118,61.7297316 C50.0297313,61.7297316 47.8445954,63.9148675 47.8445954,66.6959479 L47.8445954,80.6013538 C47.8445954,83.3824342 50.0297313,85.5675702 52.8108118,85.5675702 C55.5918921,85.5675702 57.7770281,83.3824342 57.7770281,80.6013538 L57.7770281,66.6959479 C57.7770281,63.9148675 55.5918921,61.7297316 52.8108118,61.7297316 Z M54.7972983,80.6013538 C54.7972983,81.6939198 53.9033797,82.5878404 52.8108118,82.5878404 C51.7182438,82.5878404 50.8243252,81.6939198 50.8243252,80.6013538 L50.8243252,66.6959479 C50.8243252,65.6033818 51.7182438,64.7094614 52.8108118,64.7094614 C53.9033797,64.7094614 54.7972983,65.6033818 54.7972983,66.6959479 L54.7972983,80.6013538 Z M43.0770283,31.9324332 C42.9777036,31.3364869 42.878379,30.6412168 42.878379,29.9459467 L42.878379,28.9527034 L36.4222977,28.9527034 C35.925676,28.3567575 35.2304059,27.9594601 34.4358111,27.9594601 L27.4831082,27.9594601 C26.0925676,27.9594601 25,29.0520276 25,30.4425683 C25,31.8331085 26.0925676,32.9256765 27.4831082,32.9256765 L34.4358111,32.9256765 C35.2304059,32.9256765 35.925676,32.5283795 36.4222977,31.9324332 L43.0770283,31.9324332 Z M34.4358121,30.93919 L27.4831091,30.93919 C27.1851362,30.93919 26.9864875,30.7405415 26.9864875,30.4425683 C26.9864875,30.1445951 27.1851362,29.9459467 27.4831091,29.9459467 L34.4358121,29.9459467 C34.7337852,29.9459467 34.9324337,30.1445951 34.9324337,30.4425683 C34.9324337,30.7405415 34.7337852,30.93919 34.4358121,30.93919 Z M78.1385153,27.9594601 L71.1858124,27.9594601 C70.3912185,27.9594601 69.6959475,28.3567575 69.1993258,28.9527034 L62.7432445,28.9527034 L62.7432445,29.9459467 C62.7432445,30.6412168 62.6439217,31.3364869 62.5445951,31.9324332 L69.1993258,31.9324332 C69.6959475,32.5283795 70.3912185,32.9256765 71.1858124,32.9256765 L78.1385153,32.9256765 C79.5290574,32.9256765 80.6216235,31.8331085 80.6216235,30.4425683 C80.6216235,29.0520281 79.5290574,27.9594601 78.1385153,27.9594601 Z M78.1385153,30.93919 L71.1858124,30.93919 C70.8878401,30.93919 70.6891907,30.7405415 70.6891907,30.4425683 C70.6891907,30.1445951 70.8878401,29.9459467 71.1858124,29.9459467 L78.1385153,29.9459467 C78.4364875,29.9459467 78.635137,30.1445951 78.635137,30.4425683 C78.635137,30.7405415 78.4364875,30.93919 78.1385153,30.93919 Z" id="Fill-2" fill="#333333"></path>
                </g>
            </g>
        </g>
    </g>
</svg>