<?xml version="1.0" encoding="UTF-8"?>
<svg width="64px" height="64px" viewBox="0 0 64 64" version="1.1" xmlns="http://www.w3.org/2000/svg" xmlns:xlink="http://www.w3.org/1999/xlink">
    <!-- Generator: Sketch 51.3 (57544) - http://www.bohemiancoding.com/sketch -->
    <title>Fill 2</title>
    <desc>Created with Sketch.</desc>
    <defs></defs>
    <g id="Page-1" stroke="none" stroke-width="1" fill="none" fill-rule="evenodd">
        <g id="Desktop-HD" transform="translate(-963.000000, -630.000000)" fill="#343434">
            <g id="Contact-section" transform="translate(922.000000, 584.000000)">
                <path d="M88.000001,83.5 C87.2000017,83.0999984 83.4000025,81.2999992 82.7000017,81 C82.000001,80.7000007 81.500001,80.5999984 81.000001,81.4000015 C80.500001,82.2000045 79.000001,83.9000015 78.5999994,84.4000015 C78.1999979,84.9000015 77.6999979,85 76.8999987,84.6000022 C76.0999994,84.2000007 73.5999994,83.4000015 70.6999979,80.800003 C68.3999987,78.800003 66.8999987,76.300003 66.3999987,75.5000038 C65.999999,74.7000045 66.3999987,74.300003 66.6999979,73.9000034 C66.9999971,73.6000041 67.4999971,73.0000038 67.8999987,72.6000041 C68.2999983,72.2000045 68.3999987,71.8000049 68.6999979,71.3000049 C68.9999971,70.8000049 68.7999983,70.3000049 68.5999975,70.0000057 C68.3999968,69.6000061 66.8999968,65.9000053 66.1999979,64.3000068 C65.5999975,62.8000068 64.8999987,63.0000076 64.4999971,63.0000076 C64.0999975,63.0000076 63.4999971,62.9000072 62.9999971,62.9000072 C62.4999971,62.9000072 61.6999979,63.100008 60.8999968,63.9000072 C60.199996,64.7000064 58.199996,66.5000076 58.199996,70.3000068 C58.199996,74.1000061 60.9999952,77.7000064 61.2999964,78.2000083 C61.699996,78.7000083 66.5999956,86.7000083 74.4999971,89.7000083 C82.2999964,92.8000068 82.2999964,91.7000083 83.6999979,91.6000099 C85.0999994,91.5000114 88.2999964,89.8000106 88.8999987,88.0000114 C89.4999971,86.2000122 89.4999971,84.7000122 89.3999987,84.4000129 C89.3000002,84.0000114 88.6999979,83.8000144 87.9999971,83.5000114 L88.000001,83.5 Z M73.5999994,46 C56.1999998,46 42.1999998,60 42.1999998,77.2000007 C42.1999998,83.1000022 43.7999997,88.5999984 46.6999998,93.300003 L41,110 L58.3999987,104.5 C62.8999987,107 68.0999994,108.400002 73.5999994,108.400002 C91.000001,108.400002 105.000001,94.4000015 105.000001,77.2000007 C105.000001,60 90.9000025,46 73.5999994,46 Z M73.5999994,103.400002 C68.1999998,103.400002 63.1999998,101.800003 59.0999994,99.1000022 L48.8999996,102.300003 L52.1999998,92.6000022 C49,88.300003 47.1999998,83 47.1999998,77.2000026 C47.1999998,62.7000026 59.000001,51.0000019 73.5999994,51.0000019 C88.0999994,51.0000019 100.000001,62.7000007 100.000001,77.2000026 C100.000001,91.6000022 88.0999994,103.400002 73.5999994,103.400002 Z" id="Fill-2"></path>
            </g>
        </g>
    </g>
</svg>